<svg id="SvgjsSvg1028" width="288" height="288" xmlns="http://www.w3.org/2000/svg" version="1.1" xmlns:xlink="http://www.w3.org/1999/xlink" xmlns:svgjs="http://svgjs.com/svgjs"><defs id="SvgjsDefs1029"></defs><g id="SvgjsG1030"><svg xmlns="http://www.w3.org/2000/svg" viewBox="0 0 24 24" width="288" height="288"><path d="M24 12c0-6.617-5.383-12-12-12S0 5.383 0 12c0 6.287 4.862 11.45 11.022 11.95.319.03.643.05.978.05.34 0 .669-.02.992-.05a11.945 11.945 0 0 0 7.206-3.211c.012-.006.018-.019.029-.026C22.544 18.524 24 15.432 24 12zM1 12C1 5.935 5.935 1 12 1s11 4.935 11 11c0 3-1.21 5.72-3.164 7.707-.068-.026-.133-.057-.202-.081l-2.033-.707a2.503 2.503 0 0 1-.748-.422C15.582 20.067 13.863 21 12 21c-1.864 0-3.583-.934-4.854-2.505a2.506 2.506 0 0 1-.75.424l-2.033.707c-.068.024-.133.054-.2.08A10.964 10.964 0 0 1 1 12z" fill="#ffffff" class="color000 svgShape"></path><path d="M10.5 12h-1a.5.5 0 0 0 0 1h1a.5.5 0 0 0 0-1zM14.5 12h-1a.5.5 0 0 0 0 1h1a.5.5 0 0 0 0-1zM7.646 9.646a.5.5 0 0 0 .707.707c.324-.326 1.569.379 2.319 1.025a.502.502 0 0 0 .706-.052.498.498 0 0 0-.051-.704c-.417-.36-2.554-2.101-3.681-.976zM16.354 9.646c-1.124-1.124-3.264.615-3.681.976A.499.499 0 0 0 13 11.5c.116 0 .232-.04.327-.121.749-.646 1.993-1.352 2.319-1.025a.5.5 0 0 0 .708-.708z" fill="#ffffff" class="color000 svgShape"></path><path d="m12.493 20.582.108-.646c2.312-.309 4.294-2.354 5.062-5.32l.003-.009c.008-.029.019-.055.027-.084.004-.014 0-.028.002-.042.003-.02.012-.036.013-.057L18 7.521a.502.502 0 0 0-.287-.474 7.513 7.513 0 0 0-.748-.296c-.003-.005-.001-.012-.005-.018A5.836 5.836 0 0 0 12 4a5.834 5.834 0 0 0-4.959 2.733c-.004.006-.004.013-.007.019-.26.088-.512.185-.747.295A.502.502 0 0 0 6 7.521l.294 6.902c.001.019.01.034.013.052.002.016-.002.031.002.047.749 3.019 2.753 5.102 5.091 5.414l.108.646a.498.498 0 0 0 .985 0zm1.739-6.524a.5.5 0 0 0-.465.885c.206.108.544.219.961.313l-.348.522a.496.496 0 0 1-.415.222h-.184c-.23 0-.43-.156-.51-.451l-.311-.742a.5.5 0 0 0-.461-.307h-1a.5.5 0 0 0-.461.307l-.335.814a.498.498 0 0 1-.484.379h-.184a.497.497 0 0 1-.416-.223l-.348-.522c.417-.094.755-.205.961-.313a.5.5 0 1 0-.465-.885c-.321.168-1.306.393-2.423.434-.016-.058-.038-.111-.053-.171l-.276-6.498a8.435 8.435 0 0 1 1.064-.335c.014-.002.028.002.042-.002l.439-.11C10.25 7.023 11.978 7 11.995 7c.032 0 3.029.038 4.991.822l-.277 6.499c-.015.059-.037.112-.053.171-1.117-.041-2.103-.266-2.424-.434zm-6.554 1.418c.174-.011.343-.026.509-.044l.6.9c.279.418.745.668 1.248.668h.184c.689 0 1.288-.468 1.432-1.064l.183-.436h.337l.155.363A1.499 1.499 0 0 0 13.781 17h.184c.503 0 .969-.25 1.248-.668l.6-.9c.166.018.335.033.51.044-.754 1.835-2.057 3.11-3.551 3.438l.222-1.332a.5.5 0 1 0-.986-.164l-.008.041-.007-.041a.5.5 0 0 0-.986.164l.222 1.332c-1.494-.328-2.797-1.603-3.551-3.438z" fill="#ffffff" class="color000 svgShape"></path></svg></g></svg>