<svg id="SvgjsSvg1033" width="288" height="288" xmlns="http://www.w3.org/2000/svg" version="1.1" xmlns:xlink="http://www.w3.org/1999/xlink" xmlns:svgjs="http://svgjs.com/svgjs"><defs id="SvgjsDefs1034"></defs><g id="SvgjsG1035"><svg xmlns="http://www.w3.org/2000/svg" enable-background="new 0 0 115.497 245.332" viewBox="0 0 115.497 245.332" width="288" height="288"><circle cx="60.487" cy="41.649" r="22.495" transform="rotate(-76.891 60.49 41.65)" fill="#ffffff" class="color000 svgShape"></circle><path d="M33.442,84.162v43.867v18.939v86c0,6.829,5.535,12.363,12.363,12.363c6.828,0,12.363-5.534,12.363-12.363v-78.272h4.637
		v78.272c0,6.829,5.535,12.363,12.363,12.363s12.363-5.534,12.363-12.363v-86V128.03V90.558c1.671,1.756,3.545,4.45,5.408,8.725
		c3.513,8.147,6.572,22.024,6.558,44.425c0.002,3.122-0.057,6.408-0.176,9.868c-0.155,4.415,3.299,8.119,7.715,8.274
		c0.095,0.003,0.188,0.005,0.282,0.005c4.29,0,7.841-3.399,7.993-7.721c0.127-3.638,0.186-7.109,0.186-10.427
		c-0.033-31.716-5.541-49.516-13.063-60.15c-3.755-5.277-8.093-8.599-12.038-10.426c-3.945-1.841-7.383-2.209-9.433-2.205
		c-0.037,0-0.066,0.002-0.102,0.002c-0.347-0.047-0.697-0.08-1.057-0.08h-36.88c-0.588-0.202-1.995-0.742-3.88-1.829
		c-3.778-2.192-9.371-6.456-14.171-14.788c-4.781-8.341-8.864-20.918-8.875-40.138c0-1.864,0.037-3.784,0.12-5.762
		c0.182-4.416-3.247-8.142-7.66-8.324C4.045-0.177,0.318,3.253,0.135,7.666C0.041,9.869-0.002,12.013,0,14.093
		c-0.058,29.551,8.918,48.015,18.634,58.663C24.053,78.727,29.51,82.207,33.442,84.162z" fill="#ffffff" class="color000 svgShape"></path></svg></g></svg>