<svg id="SvgjsSvg1011" width="288" height="288" xmlns="http://www.w3.org/2000/svg" version="1.1" xmlns:xlink="http://www.w3.org/1999/xlink" xmlns:svgjs="http://svgjs.com/svgjs"><defs id="SvgjsDefs1012"></defs><g id="SvgjsG1013"><svg xmlns="http://www.w3.org/2000/svg" enable-background="new 0 0 60 60" viewBox="0 0 60 60" width="288" height="288"><path d="M30,6C16.8,6,6,16.8,6,30c0,13.2,10.8,24,24,24s24-10.8,24-24C54,16.8,43.2,6,30,6z M30,15.1c3.7,0,6.7,3,6.7,6.7
	s-3,6.7-6.7,6.7s-6.7-3-6.7-6.7S26.3,15.1,30,15.1z M30,44.9c-3,0-5.9-0.4-8-1.3c-3.4-1.3-4.1-3.2-4.1-4.5c0-4.4,2.3-8.6,6-10.8
	c0.4-0.2,0.8-0.2,1.1,0.1c1.5,1.1,3.2,1.7,5.1,1.7s3.6-0.6,5.1-1.7c0.3-0.3,0.8-0.3,1.1-0.1c3.7,2.3,6,6.4,6,10.8
	C42.2,43.1,36.1,44.9,30,44.9z" fill="#797979" class="color000 svgShape"></path></svg></g></svg>