<svg id="SvgjsSvg1028" width="288" height="288" xmlns="http://www.w3.org/2000/svg" version="1.1" xmlns:xlink="http://www.w3.org/1999/xlink" xmlns:svgjs="http://svgjs.com/svgjs"><defs id="SvgjsDefs1029"></defs><g id="SvgjsG1030"><svg xmlns="http://www.w3.org/2000/svg" data-name="Layer 1" viewBox="0 0 64 64" width="288" height="288"><path d="M22.637,38l3.918,3v5.056a3.919,3.919,0,0,0,.433,1.789l.159.31a3.919,3.919,0,0,1,.433,1.789V53h16.4V49.944a3.919,3.919,0,0,1,.433-1.789l.159-.31A3.919,3.919,0,0,0,45,46.056V37a4.05,4.05,0,0,0-4.1-4H34.753V22a3.075,3.075,0,0,0-6.148,0V35l-3.074-2.035A2.963,2.963,0,0,0,21,35.415,2.884,2.884,0,0,0,22.637,38Z" fill="#ffffff" class="color000 svgShape"></path><rect width="20" height="7" x="26" y="55" fill="#ffffff" class="color000 svgShape"></rect><path d="M16 19H2V33H16zm-3.465 8.95l-1.414 1.414L9 27.242 6.879 29.364 5.465 27.95l2.121-2.122L5.465 23.707l1.414-1.414L9 24.414l2.121-2.121 1.414 1.414-2.121 2.121zM48 33H62V19H48zm3.465-9.293l1.414-1.414L55 24.414l2.121-2.121 1.414 1.414-2.121 2.121 2.121 2.122-1.414 1.414L55 27.242l-2.121 2.122L51.465 27.95l2.121-2.122zM39 2H25V16H39zM31.769 12.64a1 1 0 0 1-1.324.192l-3-2 1.11-1.664 2.252 1.5L35.231 5.36l1.538 1.28z" fill="#ffffff" class="color000 svgShape"></path></svg></g></svg>