<svg id="SvgjsSvg1013" width="288" height="288" xmlns="http://www.w3.org/2000/svg" version="1.1" xmlns:xlink="http://www.w3.org/1999/xlink" xmlns:svgjs="http://svgjs.com/svgjs"><defs id="SvgjsDefs1014"></defs><g id="SvgjsG1015"><svg xmlns="http://www.w3.org/2000/svg" viewBox="0 0 48 48" width="288" height="288"><g data-name="6-dungeon"><path d="M18,48H1a1,1,0,0,1-1-1V1A1,1,0,0,1,1,0H27a1,1,0,0,1,1,1V7a1,1,0,0,1-1,1H8V32H30V30H25a1,1,0,0,1-1-1V25a1,1,0,0,1,1-1H37a1,1,0,0,1,1,1V39a1,1,0,0,1-1,1H6v2H18a1,1,0,0,1,1,1v4A1,1,0,0,1,18,48ZM2,46H17V44H5a1,1,0,0,1-1-1V39a1,1,0,0,1,1-1H36V26H26v2h5a1,1,0,0,1,1,1v4a1,1,0,0,1-1,1H7a1,1,0,0,1-1-1V7A1,1,0,0,1,7,6H26V2H2Z" fill="#ffffff" class="color000 svgShape"></path><path d="M47,48H24a1,1,0,0,1-1-1V43a1,1,0,0,1,1-1H42V8H40V19a1,1,0,0,1-1,1H20v7a1,1,0,0,1-1,1H13a1,1,0,0,1-1-1V13a1,1,0,0,1,1-1H32V1a1,1,0,0,1,1-1H47a1,1,0,0,1,1,1V47A1,1,0,0,1,47,48ZM25,46H46V2H34V13a1,1,0,0,1-1,1H14V26h4V19a1,1,0,0,1,1-1H38V7a1,1,0,0,1,1-1h4a1,1,0,0,1,1,1V43a1,1,0,0,1-1,1H25Z" fill="#ffffff" class="color000 svgShape"></path></g></svg></g></svg>