<svg id="SvgjsSvg1068" width="288" height="288" xmlns="http://www.w3.org/2000/svg" version="1.1" xmlns:xlink="http://www.w3.org/1999/xlink" xmlns:svgjs="http://svgjs.com/svgjs"><defs id="SvgjsDefs1069"></defs><g id="SvgjsG1070"><svg xmlns="http://www.w3.org/2000/svg" enable-background="new 0 0 100 100" viewBox="0 0 100 100" width="288" height="288"><path d="M62 50c1.9-2.5 3-5.7 3-9 0-8.3-6.7-15-15-15s-15 6.7-15 15c0 3.3 1.1 6.5 3 9-7.4 4-12 11.3-12 20 0 2.2 1.8 4 4 4h40c2.2 0 4-1.8 4-4 0-8.7-4.6-16-12-20zM30 70c0-9.8 7-16.9 16.3-18.6C42.1 49.8 39 45.8 39 41c0-6.1 4.9-11 11-11s11 4.9 11 11c0 4.8-3.1 8.8-7.3 10.4C63 53.1 70 60.2 70 70H30z" fill="#ffffff" class="color000 svgShape"></path></svg></g></svg>