<svg id="SvgjsSvg1035" width="288" height="288" xmlns="http://www.w3.org/2000/svg" version="1.1" xmlns:xlink="http://www.w3.org/1999/xlink" xmlns:svgjs="http://svgjs.com/svgjs"><defs id="SvgjsDefs1036"></defs><g id="SvgjsG1037"><svg xmlns="http://www.w3.org/2000/svg" viewBox="0 0 80 80" width="288" height="288"><path d="m63.439 51.592 5.6-5.6a2 2 0 1 0-2.828-2.828l-2.775 2.774-31.35-37.71a2 2 0 0 0-1.325-.711L7.21 5.01a2 2 0 0 0-2.201 2.2L7.517 30.76c.055.518.31.993.71 1.326l37.712 31.35-2.775 2.775a2 2 0 1 0 2.828 2.828l4.323-4.323.002-.002 1.276-1.275 9.107 9.108c1.634 1.633 3.779 2.449 5.924 2.449s4.29-.817 5.923-2.45A8.321 8.321 0 0 0 75 66.624a8.318 8.318 0 0 0-2.454-5.923l-9.107-9.108zm-52.03-22.063L9.25 9.251l20.28 2.157 31.065 37.37-1.4 1.4-3.095 3.095-27.282-27.281a2 2 0 1 0-2.828 2.828L53.273 56.1l-3.095 3.095v.001l-1.4 1.399-37.37-31.067zm58.309 40.19a4.383 4.383 0 0 1-6.19 0L54.42 60.61l3.095-3.096 3.095-3.095 9.108 9.108c.827.827 1.282 1.926 1.282 3.095s-.455 2.268-1.282 3.095z" fill="#ffffff" class="color000 svgShape"></path></svg></g></svg>