<?xml version="1.0" encoding="utf-8"?>
<!-- Generator: Adobe Illustrator 26.0.3, SVG Export Plug-In . SVG Version: 6.00 Build 0)  -->
<svg version="1.0" id="katman_1" xmlns="http://www.w3.org/2000/svg" xmlns:xlink="http://www.w3.org/1999/xlink" x="0px" y="0px"
	 viewBox="0 0 600 450" style="enable-background:new 0 0 600 450;" xml:space="preserve">
<path fill="#fff" d="M241.9,244.8l-16.2-32.4c-0.8-1.6-2.4-2.5-4.2-2.6h-8.4c-1.8,0-3.4,1-4.2,2.6l-16.1,32.4c-0.2,0.4-0.1,0.9,0.3,1.1
	c0.1,0.1,0.3,0.1,0.4,0.1h7.2c0.4,0,0.9-0.2,1.1-0.6l3.6-7.1h23.9l3.6,7.1c0.2,0.4,0.6,0.7,1.1,0.6h7.2c0.5-0.1,0.8-0.5,0.8-1
	C242,245,242,244.9,241.9,244.8z M209,231.1l6.7-13.5c0.2-0.3,0.5-0.5,0.8-0.5h1.7c0.3,0,0.7,0.2,0.8,0.5l6.7,13.6L209,231.1z
	 M549.4,210.7v5.5c0,0.5-0.4,0.9-0.9,0.9h-14.6v32.8c0,0.3-0.3,0.6-0.6,0.6c-0.2,0-0.3-0.1-0.4-0.2l-7.3-6.2
	c-0.6-0.5-0.9-1.2-0.9-1.9v-25.2h-11.6c-0.7,0-1.3-0.4-1.6-1l-2.8-5.6c-0.1-0.2,0-0.5,0.2-0.6c0.1,0,0.1-0.1,0.2-0.1h39.3
	C548.9,209.8,549.4,210.2,549.4,210.7z M471,217.7v6.7h26.7c2,0.1,3.6,1.7,3.5,3.7c-0.1,1.9-1.6,3.4-3.5,3.5H471v5
	c0,1.3,1,2.3,2.3,2.3h30c0.5,0,0.9,0.4,0.9,0.9v5.5c0,0.5-0.4,0.8-0.9,0.9h-32.5c-5.1,0-9.2-4.1-9.2-9.2v-22.4
	c0-2.5,2.1-4.6,4.6-4.6c0,0,0,0,0,0h37.1c0.5,0,0.9,0.4,0.9,0.9v5.5c0,0.5-0.4,0.8-0.9,0.9h-31.8C471.3,217.1,471,217.3,471,217.7z
	 M453.8,210.9v31.8c0,2.5-2,4.5-4.5,4.5c-1.1,0-2.1-0.4-2.9-1.1l-28-23.8V245c0,0.6-0.5,1.1-1.1,1.1c0,0,0,0,0,0h-7.1
	c-0.6,0-1.2-0.5-1.2-1.1v-31.7c0-2.5,2-4.5,4.5-4.5c1.1,0,2.1,0.4,2.9,1.1l28,23.8V211c0-0.6,0.5-1.2,1.1-1.2h7.1
	C453.3,209.8,453.8,210.3,453.8,210.9C453.8,210.9,453.8,210.9,453.8,210.9z M403,227.9c0,2.5-2,4.6-4.6,4.6c-2.5,0-4.6-2-4.6-4.6
	c0-2.5,2-4.6,4.6-4.6C401,223.4,403,225.4,403,227.9C403,227.9,403,227.9,403,227.9z M366.5,217.7v6.7H385c2,0.1,3.6,1.7,3.5,3.7
	c-0.1,1.9-1.6,3.4-3.5,3.5h-18.5v5c0,1.3,1,2.3,2.3,2.3h30c0.5,0,0.9,0.4,0.9,0.9v5.5c0,0.5-0.4,0.9-0.9,0.9h-32.5
	c-5.1,0-9.2-4.1-9.2-9.2v-22.4c0-2.5,2.1-4.6,4.6-4.6h37.1c0.5,0,0.9,0.4,0.9,0.9v5.5c0,0.5-0.4,0.9-0.9,0.9H367
	C366.7,217.1,366.5,217.3,366.5,217.7L366.5,217.7z M353.2,239.7v5.5c0,0.5-0.4,0.9-0.9,0.9h-26.1c-5.1,0-9.2-4.1-9.2-9.2v-26.1
	c0-0.5,0.4-0.9,0.9-0.9h7.7c0.5,0,0.9,0.4,0.9,0.9v25.8c0,1.3,1,2.3,2.3,2.3h23.6C352.9,238.8,353.2,239.2,353.2,239.7L353.2,239.7z
	 M312.1,210.7v5.5c0,0.5-0.4,0.9-0.9,0.9h-13.6v32.8c0,0.3-0.3,0.6-0.6,0.6c-0.1,0-0.3-0.1-0.4-0.1l-7.3-6.2
	c-0.6-0.5-0.9-1.2-0.9-1.9V217h-8.8c-0.7,0-1.3-0.4-1.6-1l-2.8-5.6c-0.1-0.2,0.1-0.6,0.4-0.6h35.7
	C311.7,209.8,312.1,210.2,312.1,210.7z M182.9,227.6c1.7-0.6,5.1-2.3,5.1-6.9c0-7.9-5.9-10.9-12.9-10.9h-26.9
	c-0.5,0-0.9,0.4-0.9,0.9v34.5c0,0.5,0.4,0.9,0.9,0.9h30.3c4.4-0.1,10.8-2.6,10.8-10.7C189.3,230.2,184.7,228.1,182.9,227.6z
	 M156.5,217.6c0-0.3,0.2-0.5,0.5-0.6c0,0,0.1,0,0.1,0h16.6c1.7,0,5.6,0,5.6,3.6c0,3.6-3.9,3.6-5.6,3.6h-17.2V217.6z M175.8,238.7
	h-18.7c-0.3,0-0.5-0.2-0.6-0.5c0,0,0-0.1,0-0.1v-6.6h19.2c1.9,0,4.9,0,4.9,3.6C180.6,238.9,177.2,238.7,175.8,238.7z M270.6,210.7
	v5.5c0,0.5-0.4,0.9-0.9,0.9h-10.7v32.8c0,0.3-0.3,0.6-0.6,0.6c-0.1,0-0.3-0.1-0.4-0.1l-7.3-6.2c-0.6-0.5-0.9-1.2-0.9-1.9V217h-11.6
	c-0.7,0-1.3-0.4-1.6-1l-2.8-5.6c-0.1-0.2,0.1-0.5,0.3-0.6c0,0,0,0,0.1,0h35.4C270.2,209.8,270.6,210.2,270.6,210.7z M113.4,215.8
	c-10-4.6-24.4-7.5-37.9-6.5c0.7-4.5,2.3-7.6,5.1-8.2c3.8-0.9,7.9,1.6,11.8,6.1c2.6,0.3,5.6,0.9,7.7,1.4c-7.2-13.5-16.8-21-24.1-18.2
	c-5.6,2.1-8.4,9.8-8.1,20c-7.2,1.5-12.9,4.3-16.5,8.2c-0.2,0.2-0.6,0.7-0.4,1c0.1,0.2,0.5,0,0.6-0.1c4.2-2.9,9.6-4.5,16.5-5.5
	c1,11,5.6,24.9,13.3,36c-4.2,1.7-7.7,1.8-9.7-0.3c-2.7-2.8-2.6-7.6-0.6-13.3c-1-2.4-2-5.3-2.6-7.4c-8.1,12.9-9.8,25-3.7,29.9
	c4.6,3.7,12.6,2.4,21.4-3c4.9,5.5,10.1,9,15.4,10.2c0.3,0.1,0.9,0.1,1.1-0.1c0.1-0.2-0.3-0.4-0.4-0.5c-4.6-2.2-8.7-6-13-11.6
	c9-6.3,18.7-17.3,24.5-29.5c3.5,2.8,5.4,5.8,4.6,8.5c-1.1,3.7-5.3,6-11.2,7.2c-1.6,2.1-3.6,4.4-5.1,6c15.2,0.5,26.6-4,27.8-11.7
	c0.9-5.9-4.3-12.1-13.4-17c2.3-7,2.7-13.3,1.1-18.4c-0.1-0.3-0.3-0.9-0.6-0.9c-0.2,0-0.2,0.4-0.2,0.6
	C117.3,203.8,116,209.2,113.4,215.8z M85.4,248.2c-6.4-10.3-10.1-22.5-10.1-34.8l0,0c12.2-0.4,24.6,2.5,35.2,8.6l0,0
	C104.7,232.8,96,242.1,85.4,248.2L85.4,248.2z"/>
</svg>
