<svg xmlns="http://www.w3.org/2000/svg" fill="none" viewBox="0 1 48 48" part="icon blz-icon">
  <path fill="#010100" fill-rule="evenodd" clip-rule="evenodd" d="M24 7.879c8.8 0 16 7.254 16 16.12s-7.2 16.122-16 16.122S8 32.866 8 24c0-8.867 7.2-16.121 16-16.121"></path>
  <path fill="#A43B00" fill-rule="evenodd" clip-rule="evenodd" d="M44 24c0-4.03-1.2-8.06-3.6-11.486V7.678c0-.202-.2-.202-.2-.202h-4.8c-6.8-4.635-15.8-4.635-22.6 0H7.6v5.038c-4.8 6.851-4.8 16.12 0 22.972v4.836c0 .202.2.202.2.202h4.8c6.8 4.635 15.8 4.635 22.8 0h4.8c.2 0 .2-.202.2-.403v-4.836C42.8 32.06 44 28.03 44 24M6.6 24c0-9.673 7.8-17.531 17.4-17.531S41.4 14.327 41.4 24 33.6 41.532 24 41.532 6.6 33.672 6.6 24"></path>
  <path fill="#FEAF51" fill-rule="evenodd" clip-rule="evenodd" d="M12.4 14.529H19c-.2.806-.2 1.612-.2 2.418C19 19.97 21 28.03 21 28.03l3-12.695 3.2 12.292s2-10.881 2-11.687c0-.605-.4-1.008-.8-1.411h7c-1 .806-1.6 2.015-2 3.224-.6 2.418-2.8 14.509-2.8 15.315s.4 1.612.8 2.217H25c.2-.605.2-1.21.2-1.814 0-1.209-1-6.448-1-6.448s-1.4 5.44-1.4 6.448c0 .605.2 1.21.4 1.814h-6.6s1.2-1.008 1.2-1.814c-.2-2.418-3.6-15.315-3.8-16.322 0-1.008-.6-2.016-1.6-2.62"></path>
</svg>